<svg xmlns="http://www.w3.org/2000/svg" width="500" height="500" fill="none" viewBox="0 0 500 500"><path fill="#000" d="M370 0c71.797 0 130 58.203 130 130v240c0 71.797-58.203 130-130 130H130C58.203 500 0 441.797 0 370V130C0 58.203 58.203 0 130 0zM178.319 50.01C107.297 50.91 50 108.765 50 180v140c0 71.236 57.297 129.089 128.319 129.989L180 450h140c71.797 0 130-58.203 130-130V180c0-71.797-58.203-130-130-130H180zm142.974 29.998C375.926 80.7 420 125.203 420 180v140c0 55.228-44.772 100-100 100H180c-55.228 0-100-44.772-100-100V180l.008-1.293C80.7 124.074 125.203 80 180 80h140zm-71.69 67.846c-57.073 0-103.339 45.732-103.339 102.146l.008 1.32c.71 55.366 45.983 100.116 101.995 100.818l1.336.008c56.626 0 102.614-45.021 103.33-100.826l.008-1.32c0-55.973-45.547-101.431-102.003-102.138zm0 30c40.832 0 73.338 32.628 73.338 72.146s-32.506 72.146-73.338 72.146c-40.833 0-73.339-32.628-73.339-72.146s32.506-72.146 73.339-72.146m98.016-57.822c-12.426 0-22.5 10.074-22.5 22.5s10.074 22.5 22.5 22.5 22.5-10.074 22.5-22.5-10.073-22.5-22.5-22.5"/></svg>