<svg xmlns="http://www.w3.org/2000/svg" width="500" height="500" fill="none" viewBox="0 0 500 500"><path fill="#000" d="M249.328 0c138.071 0 250 111.929 250 250s-111.929 250-250 250C135.365 500 39.213 423.746 9.109 319.477l95.679 39.71C111.33 390.489 139.083 414 172.328 414c38.108 0 69-30.892 69-69q0-.846-.021-1.688l84.482-59.469c1.833.102 3.68.157 5.539.157 53.572 0 97-43.205 97-96.5S384.9 91 331.328 91c-53.571 0-97 43.205-97 96.5q0 2.347.112 4.668l-58.149 83.944a70 70 0 0 0-3.963-.112c-13.997 0-27.021 4.167-37.897 11.329L0 231.535C9.45 102.086 117.467 0 249.328 0m-77 293c28.719 0 52 23.281 52 52s-23.281 52-52 52c-20.532 0-38.284-11.9-46.737-29.18l31.076 12.898c19.825 8.228 42.567-1.173 50.795-20.998s-1.173-42.567-20.998-50.795l-31.345-13.01A51.9 51.9 0 0 1 172.328 293m159-164c32.77 0 59 26.376 59 58.5s-26.23 58.5-59 58.5-59-26.376-59-58.5 26.23-58.5 59-58.5m0 19c-22.091 0-40 17.909-40 40s17.909 40 40 40 40-17.909 40-40-17.908-40-40-40"/></svg>