<svg xmlns="http://www.w3.org/2000/svg" width="500" height="500" fill="none" viewBox="0 0 500 500"><g clip-path="url(#a)"><circle cx="176.247" cy="175.747" r="102" stroke="#000" stroke-width="20" transform="rotate(10 176.247 175.747)"/><circle cx="176.692" cy="176.419" r="164.216" stroke="#000" stroke-width="20" transform="rotate(10 176.692 176.419)"/><mask id="b" fill="#fff"><path d="m316.433 272.606 163.941 163.941c7.81 7.81 7.81 20.473 0 28.284l-21.213 21.213c-7.811 7.811-20.474 7.811-28.284 0L266.936 322.103z"/></mask><path fill="#000" d="m330.575 258.464 163.941 163.94c15.621 15.621 15.621 40.948 0 56.569l-28.284-28.284-163.941-163.941zm142.728 241.722c-15.621 15.621-40.948 15.621-56.569 0l-163.94-163.94 28.284-28.285 163.941 163.941zM266.936 322.103l49.497-49.497zm227.58 100.301c15.621 15.621 15.621 40.948 0 56.569l-21.213 21.213c-15.621 15.621-40.948 15.621-56.569 0l28.285-28.284 21.213-21.213z" mask="url(#b)"/></g><defs><clipPath id="a"><path fill="#fff" d="M0 0h500v500H0z"/></clipPath></defs></svg>