<svg xmlns="http://www.w3.org/2000/svg" width="500" height="500" fill="none" viewBox="0 0 500 500"><g clip-path="url(#a)"><circle cx="176.247" cy="175.747" r="102" stroke="#000" stroke-width="20" transform="rotate(10 176.247 175.747)"/><circle cx="176.692" cy="176.419" r="164.216" stroke="#000" stroke-width="20" transform="rotate(10 176.692 176.419)"/><mask id="b" fill="#fff"><path d="M316.433 272.606 469.767 425.94c13.669 13.668 13.669 35.829 0 49.497-13.668 13.669-35.829 13.669-49.497 0L266.936 322.103z"/></mask><path fill="#000" d="M330.575 258.464 483.91 411.798c21.478 21.479 21.478 56.303 0 77.782l-28.285-28.285c5.858-5.858 5.858-15.355 0-21.213L302.291 286.748zM483.91 489.58c-21.479 21.478-56.303 21.478-77.782 0L252.794 336.246l28.284-28.285 153.334 153.334c5.858 5.858 15.355 5.858 21.213 0zM266.936 322.103l49.497-49.497zm216.974 89.695c21.478 21.479 21.478 56.303 0 77.782s-56.303 21.478-77.782 0l28.284-28.285c5.858 5.858 15.355 5.858 21.213 0s5.858-15.355 0-21.213z" mask="url(#b)"/></g><defs><clipPath id="a"><path fill="#fff" d="M0 0h500v500H0z"/></clipPath></defs></svg>