<svg xmlns="http://www.w3.org/2000/svg" width="500" height="500" fill="none" viewBox="0 0 500 500"><g clip-path="url(#a)"><circle cx="176.247" cy="175.747" r="102" stroke="#000" stroke-width="20" transform="rotate(10 176.247 175.747)"/><circle cx="176.692" cy="176.419" r="164.216" stroke="#000" stroke-width="20" transform="rotate(10 176.692 176.419)"/><mask id="b" fill="#fff"><path d="M316.433 272.606 491.688 447.86a4 4 0 0 1 0 5.657l-43.841 43.841a4 4 0 0 1-5.657 0L266.936 322.103z"/></mask><path fill="#000" d="M330.575 258.464 505.83 433.718c9.372 9.373 9.372 24.569 0 33.941l-39.598-16.97-163.941-163.941zM461.989 511.5c-9.372 9.373-24.568 9.373-33.941 0L252.794 336.246l28.284-28.285 163.941 163.941zM266.936 322.103l49.497-49.497zM505.83 433.718c9.372 9.373 9.372 24.569 0 33.941L461.989 511.5c-9.372 9.373-24.568 9.373-33.941 0l16.971-39.598 21.213-21.213z" mask="url(#b)"/></g><defs><clipPath id="a"><path fill="#fff" d="M0 0h500v500H0z"/></clipPath></defs></svg>