<svg xmlns="http://www.w3.org/2000/svg" width="478" height="572" fill="none" viewBox="0 0 478 572"><mask id="a" fill="#fff"><rect width="478" height="572" rx="8"/></mask><rect width="478" height="572" stroke="#000" stroke-width="50" mask="url(#a)" rx="8"/><rect width="284" height="29" x="97" y="432" fill="#000" rx="8"/><rect width="284" height="29" x="97" y="492" fill="#000" rx="8"/><rect width="142" height="29" x="239" y="101" fill="#000" rx="8"/><rect width="142" height="29" x="239" y="151" fill="#000" rx="8"/><path fill="#000" d="M150.181 244.545a4.66 4.66 0 0 1-4.659-4.659V103.75a4.66 4.66 0 0 1 9.319 0v136.136a4.66 4.66 0 0 1-4.66 4.659m27.303-97.443c-4.112 0-7.279-3.347-9.472-6.826q-1.395-2.214-3.626-3.856-5.17-3.806-14.034-3.806-6.022 0-10.171 1.704-4.148 1.648-6.363 4.602-2.16 2.955-2.159 6.705-.114 3.124 1.307 5.455 1.476 2.329 4.034 4.034 2.556 1.647 5.909 2.897a61 61 0 0 0 7.159 2.046l10.454 2.5q7.614 1.704 13.978 4.545t11.022 6.989q4.66 4.148 7.216 9.773 2.614 5.625 2.671 12.897-.057 10.683-5.455 18.523-5.34 7.784-15.454 12.102-10.057 4.262-24.262 4.262-14.09 0-24.545-4.318-10.398-4.319-16.25-12.785-3.81-5.602-5.238-12.949c-.857-4.407 2.852-8.13 7.341-8.13h8.149c4.208 0 7.437 3.421 9.267 7.21q.661 1.37 1.56 2.563 3.012 3.863 8.012 5.852 5.057 1.932 11.42 1.932 6.25 0 10.852-1.818 4.66-1.819 7.216-5.057t2.557-7.443q0-3.921-2.329-6.591-2.273-2.671-6.705-4.546-4.375-1.875-10.739-3.409l-12.67-3.182q-14.716-3.579-23.239-11.193-8.521-7.614-8.466-20.511-.056-10.569 5.625-18.466 5.739-7.898 15.739-12.33 10-4.431 22.727-4.432 12.956 0 22.614 4.432 9.715 4.432 15.114 12.33a31.1 31.1 0 0 1 4.562 10.242c1.064 4.342-2.657 8.053-7.126 8.053z"/><path fill="#000" stroke="#000" d="m142.272 113.237 2.866-11.126c1.153-4.476 6.973-5.63 9.746-1.932.407.543.711 1.156.895 1.808l3.125 11.056c1.553 5.498-2.577 10.957-8.29 10.957-5.629 0-9.746-5.311-8.342-10.763Zm0 115.526 2.866 11.126c1.153 4.476 6.973 5.63 9.746 1.932a5.5 5.5 0 0 0 .895-1.808l3.125-11.056c1.553-5.498-2.577-10.957-8.29-10.957-5.629 0-9.746 5.311-8.342 10.763Z"/></svg>