<svg xmlns="http://www.w3.org/2000/svg" width="478" height="572" fill="none" viewBox="0 0 478 572"><path fill="#000" d="M478 492c0 44.183-35.817 80-80 80H80c-44.183 0-80-35.817-80-80V80C0 35.817 35.817 0 80 0h318c44.183 0 80 35.817 80 80zM97 506.5c0 8.008 6.492 14.5 14.5 14.5h255c8.008 0 14.5-6.492 14.5-14.5s-6.492-14.5-14.5-14.5h-255c-8.008 0-14.5 6.492-14.5 14.5m0-60c0 8.008 6.492 14.5 14.5 14.5h255c8.008 0 14.5-6.492 14.5-14.5s-6.492-14.5-14.5-14.5h-255c-8.008 0-14.5 6.492-14.5 14.5m53.182-347.41a4.66 4.66 0 0 0-4.66 4.66v2.147c0 3.567-2.765 6.479-6.275 7.113q-6.114 1.103-11.451 3.468-10.001 4.431-15.739 12.329-5.682 7.897-5.625 18.465-.057 12.898 8.465 20.512t23.24 11.194a9.76 9.76 0 0 1 7.385 9.469v15.116c0 3.834-3.406 6.896-6.988 5.528q-5-1.989-8.012-5.853c-3.55-4.711-7.931-9.772-13.831-9.772h-.885c-6.826 0-12.59 5.741-10.568 12.26q1.505 4.848 4.205 8.82 5.853 8.465 16.25 12.783 6.137 2.535 13.526 3.581c3.518.498 6.303 3.391 6.303 6.944v2.033a4.66 4.66 0 0 0 9.319 0v-2.02c0-3.552 2.79-6.442 6.309-6.931q7.401-1.029 13.35-3.549 10.113-4.319 15.454-12.103 5.398-7.84 5.455-18.522-.057-7.274-2.671-12.899-2.556-5.625-7.216-9.772-4.659-4.148-11.022-6.988t-13.978-4.546a7.405 7.405 0 0 1-5.681-7.202v-12.178c0-5.455 5.153-9.99 9.546-6.756q.596.44 1.132.918c4.701 4.204 9.524 9.764 15.83 9.764 6.853 0 12.671-5.811 10.151-12.184a31 31 0 0 0-3.25-6.112q-5.397-7.898-15.113-12.329-5.47-2.51-11.995-3.598c-3.515-.586-6.301-3.484-6.301-7.048v-2.082a4.66 4.66 0 0 0-4.659-4.66m4.659 91.243c0-3.557 3.436-6.166 6.705-4.765q4.431 1.875 6.704 4.545 2.33 2.67 2.329 6.591 0 4.204-2.557 7.443-2.556 3.24-7.215 5.057c-3.036 1.199-5.966-1.399-5.966-4.663zM239 165.5c0 8.008 6.492 14.5 14.5 14.5h113c8.008 0 14.5-6.492 14.5-14.5s-6.492-14.5-14.5-14.5h-113c-8.008 0-14.5 6.492-14.5 14.5m-93.478-9.382c0 1.37-1.322 2.353-2.613 1.894q-3.352-1.25-5.909-2.899-2.556-1.704-4.034-4.034-1.42-2.33-1.307-5.454 0-3.75 2.159-6.704 2.217-2.955 6.364-4.603c2.703-1.111 5.34 1.221 5.34 4.144zM239 115.5c0 8.008 6.492 14.5 14.5 14.5h113c8.008 0 14.5-6.492 14.5-14.5s-6.492-14.5-14.5-14.5h-113c-8.008 0-14.5 6.492-14.5 14.5"/></svg>