<svg xmlns="http://www.w3.org/2000/svg" width="478" height="572" fill="none" viewBox="0 0 478 572"><path fill="#000" d="M478 564a8 8 0 0 1-8 8H8a8 8 0 0 1-8-8V8a8 8 0 0 1 8-8h462a8 8 0 0 1 8 8zM97 513a8 8 0 0 0 8 8h268a8 8 0 0 0 8-8v-13a8 8 0 0 0-8-8H105a8 8 0 0 0-8 8zm0-60a8 8 0 0 0 8 8h268a8 8 0 0 0 8-8v-13a8 8 0 0 0-8-8H105a8 8 0 0 0-8 8zm53.182-353.91a4.66 4.66 0 0 0-4.66 4.66v2.147c0 3.567-2.765 6.479-6.275 7.113q-6.114 1.103-11.451 3.468-10.001 4.431-15.739 12.329-5.682 7.897-5.625 18.465-.057 12.898 8.465 20.512t23.24 11.194l1.334.334a8 8 0 0 1 6.051 7.76v16.491c0 3.834-3.406 6.896-6.988 5.528q-5-1.989-8.012-5.853a15.4 15.4 0 0 1-1.56-2.562c-1.829-3.789-5.058-7.21-9.266-7.21h-8.15c-4.489 0-8.198 3.723-7.341 8.13q1.428 7.347 5.238 12.95 5.853 8.465 16.25 12.783 6.137 2.535 13.526 3.581c3.518.498 6.303 3.391 6.303 6.944v2.033a4.66 4.66 0 0 0 9.319 0v-2.02c0-3.552 2.79-6.442 6.309-6.931q7.401-1.029 13.35-3.549 10.113-4.319 15.454-12.103 5.398-7.84 5.455-18.522-.057-7.274-2.671-12.899-2.556-5.625-7.216-9.772-4.659-4.148-11.022-6.988t-13.978-4.546a7.405 7.405 0 0 1-5.681-7.202v-13.363c0-4.827 4.478-8.803 8.566-6.237q.506.317.98.666 2.23 1.642 3.625 3.855c2.193 3.479 5.36 6.827 9.472 6.827h8.202c4.47 0 8.191-3.712 7.127-8.053a31.1 31.1 0 0 0-4.563-10.243q-5.397-7.898-15.113-12.329-5.47-2.51-11.995-3.598c-3.515-.586-6.301-3.484-6.301-7.048v-2.082a4.66 4.66 0 0 0-4.659-4.66m4.659 91.243c0-3.557 3.436-6.166 6.705-4.765q4.431 1.875 6.704 4.545 2.33 2.67 2.329 6.591 0 4.204-2.557 7.443-2.556 3.24-7.215 5.057c-3.036 1.199-5.966-1.399-5.966-4.663zM239 172a8 8 0 0 0 8 8h126a8 8 0 0 0 8-8v-13a8 8 0 0 0-8-8H247a8 8 0 0 0-8 8zm-93.478-15.882c0 1.37-1.322 2.353-2.613 1.894q-3.352-1.25-5.909-2.899-2.556-1.704-4.034-4.034-1.42-2.33-1.307-5.454 0-3.75 2.159-6.704 2.217-2.955 6.364-4.603c2.703-1.111 5.34 1.221 5.34 4.144zM239 122a8 8 0 0 0 8 8h126a8 8 0 0 0 8-8v-13a8 8 0 0 0-8-8H247a8 8 0 0 0-8 8z"/></svg>