<svg xmlns="http://www.w3.org/2000/svg" width="418" height="500" fill="none" viewBox="0 0 418 500"><rect width="392.832" height="475" x="12.5" y="12.5" stroke="#000" stroke-width="25" rx="12.5"/><rect width="248.252" height="25.35" x="84.79" y="377.622" fill="#000" rx="12.675"/><rect width="248.252" height="25.35" x="84.79" y="430.07" fill="#000" rx="12.675"/><rect width="124.126" height="25.35" x="208.916" y="88.287" fill="#000" rx="12.675"/><rect width="124.126" height="25.35" x="208.916" y="131.993" fill="#000" rx="12.675"/><path fill="#000" d="M131.278 213.764a4.074 4.074 0 0 1-4.073-4.073v-119a4.073 4.073 0 0 1 8.145 0v119a4.073 4.073 0 0 1-4.072 4.073m24.778-85.178c-4.113 0-7.253-3.42-9.708-6.719a12.5 12.5 0 0 0-2.654-2.618q-4.52-3.328-12.267-3.328-5.265 0-8.89 1.49-3.627 1.44-5.563 4.023-1.887 2.582-1.887 5.861-.1 2.731 1.142 4.768 1.291 2.036 3.526 3.526 2.235 1.44 5.165 2.533a54 54 0 0 0 6.258 1.788l9.139 2.185q6.656 1.49 12.218 3.973 5.562 2.484 9.635 6.109a25.4 25.4 0 0 1 6.308 8.543q2.284 4.917 2.334 11.274-.05 9.337-4.768 16.191-4.668 6.805-13.509 10.579-8.791 3.725-21.208 3.725-12.317 0-21.455-3.774-9.09-3.775-14.205-11.175-3.066-4.51-4.368-10.311c-.982-4.38 2.748-8.115 7.237-8.115h5.152c4.208 0 7.393 3.48 9.479 7.135q.42.736.926 1.407 2.632 3.378 7.003 5.116 4.42 1.688 9.983 1.688 5.463 0 9.486-1.589 4.073-1.589 6.308-4.42t2.235-6.506q0-3.428-2.036-5.762-1.987-2.334-5.861-3.973-3.824-1.64-9.387-2.98l-11.075-2.781q-12.864-3.13-20.314-9.785t-7.4-17.929q-.05-9.238 4.917-16.142 5.016-6.904 13.757-10.777 8.742-3.874 19.867-3.874 11.323 0 19.767 3.874 8.493 3.873 13.211 10.777a27.1 27.1 0 0 1 3.727 7.964c1.22 4.3-2.522 8.029-6.992 8.029z"/><path fill="#000" stroke="#000" d="m124.364 98.984 2.505-9.726c1.008-3.913 6.095-4.921 8.52-1.689.355.474.62 1.01.782 1.58l2.731 9.665c1.358 4.805-2.253 9.578-7.246 9.578-4.921 0-8.519-4.643-7.292-9.408Zm0 100.983 2.505 9.726c1.008 3.913 6.095 4.921 8.52 1.689.355-.474.62-1.01.782-1.581l2.731-9.664c1.358-4.805-2.253-9.578-7.246-9.578-4.921 0-8.519 4.643-7.292 9.408Z"/></svg>