<svg xmlns="http://www.w3.org/2000/svg" width="418" height="500" fill="none" viewBox="0 0 418 500"><mask id="a" fill="#fff"><rect width="417.832" height="500" rx="8"/></mask><rect width="417.832" height="500" stroke="#000" stroke-width="40" mask="url(#a)" rx="8"/><rect width="248.252" height="25.35" x="84.79" y="377.622" fill="#000" rx="8"/><rect width="248.252" height="25.35" x="84.79" y="430.07" fill="#000" rx="8"/><rect width="124.126" height="25.35" x="208.916" y="88.287" fill="#000" rx="8"/><rect width="124.126" height="25.35" x="208.916" y="131.993" fill="#000" rx="8"/><path fill="#000" d="M131.277 213.764a4.073 4.073 0 0 1-4.072-4.073v-119a4.072 4.072 0 1 1 8.145 0v119a4.073 4.073 0 0 1-4.073 4.073m24.778-85.178c-4.112 0-7.253-3.42-9.707-6.719a12.6 12.6 0 0 0-2.654-2.618q-4.52-3.328-12.268-3.328-5.264 0-8.89 1.49-3.626 1.44-5.562 4.023-1.888 2.582-1.888 5.861-.099 2.731 1.143 4.768 1.29 2.036 3.526 3.526 2.235 1.44 5.165 2.533a54 54 0 0 0 6.258 1.788l9.139 2.185q6.655 1.49 12.218 3.973 5.562 2.484 9.635 6.109a25.4 25.4 0 0 1 6.307 8.543q2.286 4.917 2.335 11.274-.05 9.337-4.768 16.191-4.67 6.805-13.509 10.579-8.791 3.725-21.208 3.725-12.316 0-21.456-3.774-9.089-3.775-14.204-11.175-3.067-4.51-4.368-10.311c-.983-4.38 2.747-8.115 7.236-8.115h5.153c4.208 0 7.393 3.48 9.479 7.135q.42.736.926 1.407 2.632 3.378 7.003 5.116 4.42 1.688 9.983 1.688 5.463 0 9.486-1.589 4.073-1.589 6.308-4.42t2.235-6.506q0-3.428-2.037-5.762-1.987-2.334-5.86-3.973-3.825-1.64-9.387-2.98l-11.076-2.781q-12.864-3.13-20.313-9.785-7.45-6.655-7.4-17.929-.05-9.238 4.916-16.142 5.017-6.904 13.758-10.777 8.741-3.874 19.866-3.874 11.325 0 19.768 3.874 8.493 3.873 13.211 10.777a27.2 27.2 0 0 1 3.727 7.964c1.219 4.3-2.523 8.029-6.992 8.029z"/><path fill="#000" stroke="#000" d="m124.364 98.984 2.505-9.726c1.008-3.913 6.095-4.921 8.519-1.689.356.474.621 1.01.782 1.58l2.732 9.665c1.358 4.805-2.253 9.578-7.246 9.578-4.921 0-8.52-4.643-7.292-9.408Zm0 100.983 2.505 9.726c1.008 3.913 6.095 4.921 8.519 1.689.356-.474.621-1.01.782-1.581l2.732-9.664c1.358-4.805-2.253-9.578-7.246-9.578-4.921 0-8.52 4.643-7.292 9.408Z"/></svg>