<svg xmlns="http://www.w3.org/2000/svg" width="370" height="508" fill="none" viewBox="0 0 370 508"><g filter="url(#a)"><path fill="#000" d="m365.673 42.788.641 382.093c.039 23.171-16.159 43.202-38.825 48.014l-84.535 17.945a24.12 24.12 0 0 1-18.641-3.696c-17.693-12.12-11.957-39.573 9.108-43.595l39.78-7.595c19.349-3.694 33.334-20.631 33.301-40.33l-.639-380.86z"/><path stroke="#000" d="m365.673 42.788.641 382.093c.039 23.171-16.159 43.202-38.825 48.014l-84.535 17.945a24.12 24.12 0 0 1-18.641-3.696c-17.693-12.12-11.957-39.573 9.108-43.595l39.78-7.595c19.349-3.694 33.334-20.631 33.301-40.33l-.639-380.86z"/></g><g filter="url(#b)"><path fill="#000" d="m353.694 30.81.641 382.093c.039 23.171-16.158 43.203-38.825 48.014l-84.534 17.945a24.12 24.12 0 0 1-18.642-3.696c-17.692-12.12-11.956-39.573 9.109-43.595l39.779-7.595c19.35-3.694 33.335-20.631 33.302-40.33l-.639-380.859z"/><path stroke="#000" d="m353.694 30.81.641 382.093c.039 23.171-16.158 43.203-38.825 48.014l-84.534 17.945a24.12 24.12 0 0 1-18.642-3.696c-17.692-12.12-11.956-39.573 9.109-43.595l39.779-7.595c19.35-3.694 33.335-20.631 33.302-40.33l-.639-380.859z"/></g><g filter="url(#c)"><path fill="#000" d="M178.428 448.983 98.089 70.363l47.568-16.038 36.327 17.162 83.467 384.54-44.708 9.984z"/><path stroke="#000" d="m98.089 70.364 80.339 378.619 42.315 17.028M98.089 70.364l39.321 17.094M98.089 70.364l47.568-16.039 36.327 17.162m38.759 394.524 44.708-9.984-83.467-384.54m38.759 394.524L137.41 87.459m44.574-15.972L137.41 87.459"/></g><g filter="url(#d)"><path fill="#000" d="M15.479 474.563V92.47c0-23.171 16.23-43.175 38.905-47.949l84.565-17.803a24.12 24.12 0 0 1 18.635 3.727c17.672 12.15 11.89 39.593-9.182 43.58l-39.792 7.528c-19.356 3.662-33.37 20.575-33.37 40.274v380.86z"/><path stroke="#000" d="M15.479 474.563V92.47c0-23.171 16.23-43.175 38.905-47.949l84.565-17.803a24.12 24.12 0 0 1 18.635 3.727c17.672 12.15 11.89 39.593-9.182 43.58l-39.792 7.528c-19.356 3.662-33.37 20.575-33.37 40.274v380.86z"/></g><g filter="url(#e)"><path fill="#000" d="M3.5 462.585V80.491c0-23.171 16.231-43.175 38.906-47.948l84.564-17.804a24.12 24.12 0 0 1 18.635 3.727c17.673 12.15 11.89 39.594-9.181 43.58l-39.792 7.528c-19.356 3.662-33.37 20.575-33.37 40.275v380.859z"/><path stroke="#000" d="M3.5 462.585V80.491c0-23.171 16.231-43.175 38.906-47.948l84.564-17.804a24.12 24.12 0 0 1 18.635 3.727c17.673 12.15 11.89 39.594-9.181 43.58l-39.792 7.528c-19.356 3.662-33.37 20.575-33.37 40.275v380.859z"/></g><defs><filter id="a" width="159.507" height="483.888" x="210.307" y="11.978" color-interpolation-filters="sRGB" filterUnits="userSpaceOnUse"><feFlood flood-opacity="0" result="BackgroundImageFix"/><feColorMatrix in="SourceAlpha" result="hardAlpha" values="0 0 0 0 0 0 0 0 0 0 0 0 0 0 0 0 0 0 127 0"/><feOffset dy="1"/><feGaussianBlur stdDeviation="1.5"/><feComposite in2="hardAlpha" operator="out"/><feColorMatrix values="0 0 0 0 0 0 0 0 0 0 0 0 0 0 0 0 0 0 0.3 0"/><feBlend in2="BackgroundImageFix" result="effect1_dropShadow_20_246"/><feBlend in="SourceGraphic" in2="effect1_dropShadow_20_246" result="shape"/></filter><filter id="b" width="159.507" height="483.888" x="198.328" y="0" color-interpolation-filters="sRGB" filterUnits="userSpaceOnUse"><feFlood flood-opacity="0" result="BackgroundImageFix"/><feColorMatrix in="SourceAlpha" result="hardAlpha" values="0 0 0 0 0 0 0 0 0 0 0 0 0 0 0 0 0 0 127 0"/><feOffset dy="1"/><feGaussianBlur stdDeviation="1.5"/><feComposite in2="hardAlpha" operator="out"/><feColorMatrix values="0 0 0 0 0 0 0 0 0 0 0 0 0 0 0 0 0 0 0.3 0"/><feBlend in2="BackgroundImageFix" result="effect1_dropShadow_20_246"/><feBlend in="SourceGraphic" in2="effect1_dropShadow_20_246" result="shape"/></filter><filter id="c" width="176.538" height="420.745" x="93.507" y="53.787" color-interpolation-filters="sRGB" filterUnits="userSpaceOnUse"><feFlood flood-opacity="0" result="BackgroundImageFix"/><feColorMatrix in="SourceAlpha" result="hardAlpha" values="0 0 0 0 0 0 0 0 0 0 0 0 0 0 0 0 0 0 127 0"/><feOffset dy="4"/><feGaussianBlur stdDeviation="2"/><feComposite in2="hardAlpha" operator="out"/><feColorMatrix values="0 0 0 0 0 0 0 0 0 0 0 0 0 0 0 0 0 0 0.25 0"/><feBlend in2="BackgroundImageFix" result="effect1_dropShadow_20_246"/><feBlend in="SourceGraphic" in2="effect1_dropShadow_20_246" result="shape"/><feColorMatrix in="SourceAlpha" result="hardAlpha" values="0 0 0 0 0 0 0 0 0 0 0 0 0 0 0 0 0 0 127 0"/><feOffset dy="4"/><feGaussianBlur stdDeviation="2"/><feComposite in2="hardAlpha" k2="-1" k3="1" operator="arithmetic"/><feColorMatrix values="0 0 0 0 0 0 0 0 0 0 0 0 0 0 0 0 0 0 0.25 0"/><feBlend in2="shape" result="effect2_innerShadow_20_246"/></filter><filter id="d" width="159.579" height="483.774" x="11.979" y="23.7" color-interpolation-filters="sRGB" filterUnits="userSpaceOnUse"><feFlood flood-opacity="0" result="BackgroundImageFix"/><feColorMatrix in="SourceAlpha" result="hardAlpha" values="0 0 0 0 0 0 0 0 0 0 0 0 0 0 0 0 0 0 127 0"/><feOffset dy="1"/><feGaussianBlur stdDeviation="1.5"/><feComposite in2="hardAlpha" operator="out"/><feColorMatrix values="0 0 0 0 0 0 0 0 0 0 0 0 0 0 0 0 0 0 0.3 0"/><feBlend in2="BackgroundImageFix" result="effect1_dropShadow_20_246"/><feBlend in="SourceGraphic" in2="effect1_dropShadow_20_246" result="shape"/></filter><filter id="e" width="159.579" height="483.774" x="0" y="11.722" color-interpolation-filters="sRGB" filterUnits="userSpaceOnUse"><feFlood flood-opacity="0" result="BackgroundImageFix"/><feColorMatrix in="SourceAlpha" result="hardAlpha" values="0 0 0 0 0 0 0 0 0 0 0 0 0 0 0 0 0 0 127 0"/><feOffset dy="1"/><feGaussianBlur stdDeviation="1.5"/><feComposite in2="hardAlpha" operator="out"/><feColorMatrix values="0 0 0 0 0 0 0 0 0 0 0 0 0 0 0 0 0 0 0.3 0"/><feBlend in2="BackgroundImageFix" result="effect1_dropShadow_20_246"/><feBlend in="SourceGraphic" in2="effect1_dropShadow_20_246" result="shape"/></filter></defs></svg>